<?xml version="1.0" standalone="no"?>
<!DOCTYPE svg PUBLIC "-//W3C//DTD SVG 20010904//EN"
 "http://www.w3.org/TR/2001/REC-SVG-20010904/DTD/svg10.dtd">
<svg version="1.0" xmlns="http://www.w3.org/2000/svg"
 width="920.000000pt" height="920.000000pt" viewBox="0 0 920.000000 920.000000"
 preserveAspectRatio="xMidYMid meet">

<g transform="translate(0.000000,920.000000) scale(0.100000,-0.100000)"
fill="#000000" stroke="none">
<path d="M4411 8568 c-77 -30 -133 -91 -224 -247 -44 -74 -98 -153 -124 -177
-105 -103 -279 -145 -423 -102 -19 6 -98 45 -175 88 -172 95 -197 104 -294 98
-122 -7 -224 -75 -278 -186 -26 -54 -28 -65 -34 -257 -6 -171 -10 -208 -29
-256 -43 -111 -140 -207 -250 -251 -47 -18 -84 -22 -255 -28 -173 -5 -206 -9
-247 -27 -102 -46 -188 -161 -203 -273 -10 -75 16 -153 100 -304 94 -169 105
-199 105 -298 0 -94 -25 -177 -77 -255 -39 -60 -81 -92 -243 -188 -186 -111
-242 -188 -243 -335 -1 -68 3 -86 31 -143 41 -82 81 -118 234 -208 155 -92
208 -141 255 -235 31 -64 36 -85 41 -167 3 -60 0 -108 -8 -133 -7 -21 -50
-109 -96 -195 -101 -187 -115 -240 -90 -340 22 -88 77 -166 146 -207 75 -45
105 -51 255 -53 72 -1 160 -5 198 -9 161 -18 308 -142 359 -305 5 -16 13 -120
17 -230 7 -191 8 -202 34 -253 54 -103 133 -162 248 -183 91 -16 157 3 321 95
73 40 155 81 181 90 99 33 247 13 350 -47 64 -38 115 -98 195 -234 110 -186
155 -229 274 -259 104 -27 217 1 301 76 20 18 74 94 118 169 88 146 139 208
207 248 101 60 251 80 348 47 26 -9 110 -51 188 -94 169 -94 229 -111 325 -90
76 16 166 71 203 126 56 80 61 105 68 319 6 159 11 209 25 245 64 158 195 262
349 279 39 5 131 9 205 10 145 2 197 15 272 67 44 30 102 111 119 168 7 23 11
72 8 120 -4 74 -9 90 -48 162 -23 43 -66 122 -94 174 l-51 95 0 115 c0 110 2
118 34 187 44 95 103 150 260 242 68 40 140 88 160 107 131 118 138 343 15
470 -21 23 -91 71 -154 109 -165 98 -204 129 -248 195 -53 79 -75 164 -71 273
4 82 7 91 59 189 142 269 142 269 142 350 0 99 -34 178 -104 244 -84 79 -113
87 -343 94 -171 6 -208 10 -255 29 -112 44 -209 140 -251 248 -19 50 -23 86
-29 258 -6 190 -8 203 -33 256 -50 104 -154 178 -263 187 -104 8 -141 -3 -295
-89 -176 -98 -213 -111 -309 -111 -139 1 -274 64 -343 161 -19 25 -64 98 -102
161 -79 133 -135 191 -211 220 -73 27 -180 26 -253 -2z m1462 -2121 c114 -52
168 -132 175 -259 8 -144 44 -102 -785 -929 -699 -698 -730 -728 -788 -749
-77 -28 -162 -24 -238 13 -76 38 -853 819 -887 892 -48 105 -27 233 55 323 57
64 134 97 225 97 123 0 136 -10 458 -329 l283 -280 592 590 c325 325 606 600
622 612 82 55 193 63 288 19z"/>
<path d="M2311 2754 c-18 -43 -68 -162 -111 -264 -71 -168 -422 -1006 -491
-1174 -16 -38 -28 -70 -26 -72 1 -2 47 1 102 6 55 5 206 19 335 30 129 11 342
29 473 41 131 11 244 19 251 17 7 -2 186 -205 396 -453 211 -247 386 -451 389
-452 3 -2 47 97 98 220 51 122 194 465 318 762 124 297 227 543 228 548 1 4
-34 22 -79 40 -178 72 -338 203 -439 357 -26 41 -50 76 -51 78 -1 2 -38 -15
-83 -37 -44 -23 -120 -53 -168 -68 -81 -25 -102 -27 -258 -27 -156 0 -177 2
-258 27 -254 78 -432 226 -583 483 -9 15 -15 6 -43 -62z"/>
<path d="M6695 2765 c-139 -236 -382 -407 -649 -454 -77 -14 -245 -14 -322 0
-86 15 -178 46 -268 91 -43 22 -80 38 -81 36 -2 -2 -27 -38 -55 -81 -62 -95
-164 -198 -260 -262 -70 -47 -217 -115 -247 -115 -8 0 -13 -6 -10 -12 3 -7
123 -294 266 -638 144 -344 288 -687 319 -762 31 -76 59 -138 62 -137 3 0 82
91 175 201 467 553 598 703 614 706 17 3 263 -18 941 -78 118 -10 216 -18 217
-16 1 1 -53 134 -121 296 -68 162 -215 513 -326 780 -111 267 -205 491 -209
498 -5 9 -21 -9 -46 -53z"/>
</g>
</svg>
