<!DOCTYPE svg PUBLIC "-//W3C//DTD SVG 20010904//EN" "http://www.w3.org/TR/2001/REC-SVG-20010904/DTD/svg10.dtd">
<svg version="1.0" xmlns="http://www.w3.org/2000/svg" width="321px" height="46px" viewBox="0 0 3210 460" preserveAspectRatio="xMidYMid meet">
<g id="layer101" fill="#08070c" stroke="none">
<path d="M1345 431 c-171 -79 -166 -333 7 -405 48 -20 128 -20 176 0 176 73 176 335 0 408 -50 21 -134 20 -183 -3z m59 -107 c8 -22 8 -54 -1 -54 -5 0 -19 9 -33 20 -25 19 -25 19 -5 34 26 20 31 20 39 0z m111 0 c20 -15 20 -15 -5 -34 -14 -11 -28 -20 -32 -20 -10 0 -10 32 -2 54 8 20 13 20 39 0z m-59 -85 c10 -17 -13 -36 -27 -22 -12 12 -4 33 11 33 5 0 12 -5 16 -11z m-85 -19 c27 0 24 -16 -7 -36 -22 -15 -27 -15 -35 -3 -15 24 -11 52 7 45 9 -3 24 -6 35 -6z m189 -7 c0 -10 -4 -24 -9 -32 -8 -12 -13 -12 -35 3 -33 21 -33 34 2 39 15 2 30 5 35 6 4 0 7 -7 7 -16z m-100 -62 c16 -32 12 -41 -20 -41 -16 0 -30 5 -30 11 0 16 20 49 30 49 5 0 14 -9 20 -19z"/>
</g>
<g id="layer102" fill="#310406" stroke="none">
<path d="M1400 378 c-112 -31 -149 -170 -68 -255 105 -110 296 -3 256 145 -12 44 -60 98 -97 107 -14 3 -33 8 -41 9 -8 2 -31 0 -50 -6z m99 -38 c23 -11 45 -32 55 -54 20 -42 20 -57 1 -101 l-14 -35 -26 26 c-32 32 -26 54 15 54 33 0 36 7 18 45 -11 24 -12 24 -35 9 -36 -23 -53 -12 -46 30 5 35 5 36 -27 36 -32 0 -32 -1 -27 -36 7 -42 -10 -53 -46 -30 -23 15 -24 15 -35 -9 -18 -38 -15 -45 18 -45 40 0 49 -24 19 -49 l-24 -20 23 -23 c23 -22 24 -22 35 -5 32 50 37 53 50 34 33 -51 35 -52 48 -39 7 6 18 12 23 12 6 0 0 -8 -14 -17 -32 -22 -107 -22 -142 1 -25 17 -58 80 -58 112 0 34 34 86 69 104 46 25 73 25 120 0z m-39 -96 c11 -12 10 -18 -3 -32 -16 -15 -18 -15 -34 0 -13 14 -14 20 -3 32 7 9 16 16 20 16 4 0 13 -7 20 -16z"/>
</g>
<g id="layer103" fill="#141429" stroke="none">
<path d="M544 441 c-75 -19 -84 -46 -84 -256 l0 -165 43 0 c91 0 87 -7 87 159 0 101 4 151 12 159 21 21 66 14 84 -13 15 -22 16 -45 11 -160 -6 -151 -9 -145 81 -145 l42 0 0 164 c0 90 -5 177 -11 194 -7 20 -23 36 -46 47 -40 19 -171 29 -219 16z"/>
<path d="M6 432 c-2 -4 30 -99 71 -210 l76 -203 61 3 61 3 77 199 c43 109 75 202 72 207 -3 5 -34 9 -69 9 -62 0 -64 -1 -70 -30 -6 -30 -8 -30 -71 -30 -63 0 -65 1 -75 30 -11 29 -13 30 -69 30 -33 0 -61 -4 -64 -8z m233 -169 c0 -5 -6 -24 -14 -43 l-13 -35 -11 28 c-17 44 -14 57 14 57 14 0 25 -3 24 -7z"/>
<path d="M954 298 c4 -79 4 -151 0 -161 -5 -15 -14 -17 -50 -11 -49 7 -50 5 -38 -66 l6 -35 149 0 149 0 0 43 c0 58 0 57 -48 54 l-44 -3 3 158 4 158 -69 3 -69 3 7 -143z"/>
<path d="M1345 423 c-128 -65 -158 -235 -61 -341 77 -85 236 -85 312 0 71 79 70 219 -3 300 -29 32 -95 61 -105 46 -6 -10 -8 -10 -8 0 0 17 -97 14 -135 -5z m158 -37 c44 -18 95 -78 103 -121 11 -60 -4 -106 -50 -151 -46 -46 -91 -61 -153 -49 -50 9 -119 78 -128 128 -11 55 2 103 38 144 53 60 122 78 190 49z"/>
<path d="M1400 378 c-112 -31 -149 -170 -68 -255 105 -110 296 -3 256 145 -12 44 -60 98 -97 107 -14 3 -33 8 -41 9 -8 2 -31 0 -50 -6z m99 -38 c38 -19 71 -68 71 -106 0 -32 -40 -100 -67 -115 -35 -19 -103 -16 -135 5 -25 17 -58 80 -58 112 0 34 34 86 69 104 46 25 73 25 120 0z"/>
</g>
<g id="layer104" fill="#a30303" stroke="none">
<path d="M1732 411 c-30 -53 -28 -70 7 -77 17 -4 38 -15 47 -25 16 -17 16 -20 0 -41 -9 -13 -28 -38 -41 -57 -52 -71 -20 -154 72 -185 26 -9 52 -16 58 -16 14 0 57 95 47 104 -3 3 -18 6 -34 6 -44 0 -45 25 -4 77 42 54 51 80 42 127 -8 43 -70 101 -123 115 -51 14 -46 16 -71 -28z"/>
<path d="M2100 437 c-46 -15 -106 -77 -119 -124 -29 -104 4 -220 77 -268 72 -47 189 -43 249 10 l28 24 -24 45 c-13 25 -28 46 -32 46 -5 0 -23 -9 -41 -20 -59 -35 -110 -22 -134 35 -40 97 60 187 139 125 33 -26 38 -26 65 13 28 42 28 52 -4 80 -50 44 -130 57 -204 34z"/>
<path d="M2346 432 c-2 -4 30 -99 71 -210 l76 -203 61 3 61 3 77 199 c43 109 75 202 72 207 -3 5 -34 9 -69 9 -62 0 -64 -1 -70 -30 -6 -30 -8 -30 -71 -30 -63 0 -65 1 -75 30 -11 29 -13 30 -69 30 -33 0 -61 -4 -64 -8z m233 -169 c0 -5 -6 -24 -14 -43 l-13 -35 -11 28 c-17 44 -14 57 14 57 14 0 25 -3 24 -7z"/>
<path d="M2803 225 l0 -215 56 0 57 0 78 110 c42 60 80 110 83 110 3 0 3 -48 1 -107 l-3 -108 63 -3 62 -3 -2 213 -3 213 -55 3 -55 3 -79 -106 c-43 -58 -79 -105 -80 -105 -1 0 -2 46 -2 103 l1 102 -61 3 -61 3 0 -216z"/>
<path d="M1416 304 c7 -37 6 -37 -22 -30 -55 13 -59 12 -62 -16 -3 -25 0 -28 27 -28 39 0 44 -19 14 -51 l-24 -26 24 -16 c24 -16 25 -15 37 13 16 38 42 38 61 0 l14 -29 25 19 25 19 -27 21 c-33 26 -27 50 14 50 26 0 29 3 26 28 -3 28 -7 29 -62 16 -28 -7 -29 -7 -22 30 7 35 6 36 -24 36 -30 0 -31 -1 -24 -36z m49 -74 c0 -18 -6 -26 -23 -28 -24 -4 -38 18 -28 44 3 9 15 14 28 12 17 -2 23 -10 23 -28z"/>
</g>
<g id="layer105" fill="#3d3847" stroke="none">
<path d="M1290 375 c-19 -19 -31 -35 -28 -35 9 0 70 62 65 66 -2 2 -19 -12 -37 -31z"/>
<path d="M1531 377 c18 -12 44 -38 56 -56 13 -19 23 -28 23 -21 0 16 -84 100 -100 100 -7 0 2 -10 21 -23z"/>
<path d="M1242 310 c-6 -10 -8 -21 -3 -24 5 -3 11 4 14 16 8 29 4 32 -11 8z"/>
<path d="M1238 174 c-4 -5 0 -18 8 -29 15 -20 17 -12 5 19 -4 11 -10 15 -13 10z"/>
<path d="M1290 85 c18 -19 35 -33 37 -31 5 4 -56 66 -65 66 -3 0 9 -16 28 -35z"/>
<path d="M1577 88 c-40 -43 -28 -45 13 -3 19 19 30 34 24 34 -5 -1 -22 -15 -37 -31z"/>
</g>


</svg>