<?xml version="1.0" standalone="no"?>
<!DOCTYPE svg PUBLIC "-//W3C//DTD SVG 20010904//EN"
 "http://www.w3.org/TR/2001/REC-SVG-20010904/DTD/svg10.dtd">
<svg version="1.0" xmlns="http://www.w3.org/2000/svg"
 width="512.000000pt" height="512.000000pt" viewBox="0 0 512.000000 512.000000"
 preserveAspectRatio="xMidYMid meet">

<g transform="translate(0.000000,512.000000) scale(0.100000,-0.100000)"
fill="#000000" stroke="none">
<path d="M668 4213 c-16 -10 -34 -31 -42 -48 -13 -28 -36 -169 -36 -221 l0
-23 743 -3 742 -3 39 -24 c43 -27 75 -86 76 -140 0 -50 -34 -112 -77 -141
l-37 -25 -995 -5 c-940 -5 -998 -6 -1023 -23 -27 -19 -58 -72 -58 -101 0 -9 6
-32 14 -51 29 -69 -29 -65 1027 -65 950 0 953 0 997 -21 61 -30 97 -87 97
-153 -1 -64 -35 -128 -85 -159 -35 -22 -35 -22 -730 -27 -662 -5 -696 -6 -723
-24 -71 -48 -75 -140 -7 -201 22 -19 40 -20 704 -25 l683 -5 35 -27 c101 -77
87 -235 -27 -300 l-40 -23 -840 -5 c-702 -4 -843 -7 -861 -19 -57 -38 -72
-128 -29 -175 33 -35 65 -46 137 -46 l61 0 -6 -42 c-20 -150 -39 -431 -33
-480 14 -108 110 -226 215 -263 24 -8 81 -18 127 -22 l83 -6 16 -54 c39 -133
141 -255 271 -321 120 -61 300 -69 429 -17 89 36 171 91 224 151 44 50 121
193 121 225 0 17 26 18 608 21 667 3 652 2 745 66 38 25 40 25 65 9 54 -34
116 -59 156 -64 79 -8 83 -11 91 -49 31 -168 213 -344 393 -383 75 -16 184
-14 256 5 177 46 338 198 395 375 l11 36 90 10 c119 13 199 52 272 132 84 90
94 127 123 445 14 149 32 344 40 434 9 90 13 179 9 197 -8 44 -43 75 -100 90
-53 13 -18 -47 -341 579 -96 186 -181 349 -189 361 -30 46 -45 47 -489 52
-231 3 -421 6 -421 7 -1 0 5 46 13 101 19 130 13 255 -16 316 -29 64 -92 126
-159 157 l-57 27 -1330 2 c-1239 2 -1332 1 -1357 -14z m3228 -895 c-23 -202
-47 -547 -44 -618 5 -103 27 -151 100 -221 92 -88 103 -90 537 -93 364 -3 376
-3 374 -22 -1 -10 -12 -129 -23 -264 -32 -380 -39 -429 -57 -461 -27 -46 -75
-69 -142 -69 l-58 0 -22 60 c-66 180 -232 313 -423 340 -127 18 -278 -18 -385
-92 -93 -63 -181 -177 -212 -271 -11 -33 -16 -37 -48 -37 -51 0 -93 45 -93 99
0 22 20 265 45 538 25 274 56 624 70 778 14 154 28 304 31 333 l6 52 175 0
175 0 -6 -52z m-2420 -1616 c84 -43 146 -134 160 -234 10 -69 -25 -172 -76
-231 -167 -189 -476 -109 -519 134 -25 144 42 269 179 334 48 23 65 26 135 22
56 -2 92 -10 121 -25z m2717 -2 c60 -30 102 -77 135 -148 31 -69 29 -172 -6
-243 -89 -183 -325 -235 -471 -103 -64 57 -92 110 -98 185 -13 140 73 279 202
327 17 6 66 10 110 9 62 -2 91 -8 128 -27z"/>
</g>
</svg>
